<svg width="64px" height="64px" viewBox="-2.4 -2.4 28.80 28.80" xmlns="http://www.w3.org/2000/svg" id="down-sign-1" class="icon glyph" fill="#000000" transform="rotate(45)matrix(1, 0, 0, -1, 0, 0)"><g id="SVGRepo_bgCarrier" stroke-width="0"><rect x="-2.4" y="-2.4" width="28.80" height="28.80" rx="14.4" fill="#ffffff" strokewidth="0"></rect></g><g id="SVGRepo_tracerCarrier" stroke-linecap="round" stroke-linejoin="round"></g><g id="SVGRepo_iconCarrier"><path d="M17,14.56H15v-11a1,1,0,0,0-1-1H10a1,1,0,0,0-1,1v11H7a1,1,0,0,0-.91.58,1,1,0,0,0,.14,1.06l4.23,5.08a2,2,0,0,0,3.08,0l4.23-5.08a1,1,0,0,0,.14-1.06A1,1,0,0,0,17,14.56Z" style="fill:#6b9bd2"></path></g></svg>