<svg width="24px" height="24px" version="1.1" id="Layer_1" xmlns="http://www.w3.org/2000/svg" xmlns:xlink="http://www.w3.org/1999/xlink" x="0px" y="0px" viewBox="0 0 256 240" enable-background="new 0 0 256 240" xml:space="preserve">
<path fill="#000000" opacity="1.000000" stroke="none" 
	d="
M56.904892,207.754272 
	C55.509285,207.690445 54.499004,207.473068 53.517780,207.565216 
	C44.592285,208.403244 42.939686,206.496643 43.069843,196.453186 
	C43.108685,193.455688 43.130104,190.456223 43.261536,187.462128 
	C43.456532,183.020065 45.762928,180.854813 50.288013,180.895142 
	C58.119392,180.964966 65.960777,180.672028 73.780777,180.974838 
	C78.515480,181.158188 78.749733,178.617798 78.784088,175.044388 
	C78.819626,171.346970 78.317741,169.067215 73.667625,169.276474 
	C66.017998,169.620728 58.339279,169.255997 50.675961,169.381592 
	C46.056999,169.457260 43.857590,167.357468 43.841576,162.822159 
	C43.826279,158.489609 43.807808,154.156860 43.829746,149.824402 
	C43.853783,145.077332 46.295105,142.858231 51.016026,142.887054 
	C58.347904,142.931839 65.683853,142.742966 73.011162,142.927719 
	C76.929070,143.026474 78.693413,141.923325 78.726036,137.600861 
	C78.818359,125.367699 81.449776,123.017281 93.954407,122.980255 
	C96.787308,122.971863 99.628899,122.832481 102.450912,123.006355 
	C105.834305,123.214813 108.356079,122.523079 110.462540,119.361641 
	C113.933937,114.151672 119.701538,115.710480 124.721718,115.734200 
	C128.377380,115.751472 129.804459,114.564430 129.644119,110.791367 
	C129.499603,107.390945 128.312592,106.202293 124.851685,106.257286 
	C113.689590,106.434662 102.522682,106.290314 91.357758,106.319237 
	C87.625504,106.328911 84.052002,105.612381 80.719795,104.001129 
	C72.783295,100.163536 67.909142,91.984688 68.832047,84.292442 
	C69.734528,76.770439 76.580841,69.703812 84.966675,67.743172 
	C86.740746,67.328377 88.587929,67.215935 90.020142,66.202110 
	C90.675339,65.322380 90.655281,64.474869 90.241669,63.726566 
	C83.249352,51.076187 93.156975,34.496880 110.938087,33.788090 
	C122.139084,33.341599 131.123810,37.654091 135.777100,48.607353 
	C136.710587,50.804661 137.822342,51.435390 140.338272,51.090912 
	C152.781235,49.387245 163.197144,52.374569 169.169754,64.609161 
	C169.824814,65.951042 170.805405,66.581169 172.266724,66.747643 
	C173.914047,66.935295 175.550812,67.249649 177.177063,67.582710 
	C188.977478,69.999504 195.353867,77.962631 194.328415,88.973587 
	C193.460648,98.291451 184.330200,106.053825 173.518616,106.251198 
	C162.190567,106.458008 150.854553,106.426865 139.525421,106.263657 
	C135.790146,106.209839 134.139450,107.133873 134.165009,111.271889 
	C134.191116,115.503067 136.399948,115.863083 139.571274,115.661133 
	C145.731613,115.268860 151.653549,115.401649 155.272736,121.750198 
	C156.096313,123.194893 157.918152,122.956024 159.407303,122.967140 
	C163.906403,123.000702 168.408508,122.896309 172.904541,123.021477 
	C181.140121,123.250763 184.218872,126.753006 185.442734,134.777725 
	C186.083954,138.982101 187.961395,143.427948 190.555237,146.777679 
	C192.917908,149.828842 197.010834,150.673035 200.814072,147.755020 
	C202.981598,146.092010 205.165909,145.536484 207.351166,148.122635 
	C209.328903,150.463196 211.298843,152.220993 209.289062,155.871201 
	C205.749466,162.299881 207.434433,166.154465 214.611969,168.655823 
	C217.793091,169.764450 218.423325,171.664780 218.440765,174.662796 
	C218.458466,177.704834 217.176422,179.099457 214.416779,180.039505 
	C207.315323,182.458542 205.803528,185.933533 209.033859,192.451157 
	C210.399948,195.207474 210.446381,197.269150 208.116058,199.570770 
	C205.878281,201.780960 203.947647,202.167969 201.063278,200.719070 
	C194.562561,197.453537 190.752869,199.021790 188.612381,205.852783 
	C187.588425,209.120560 185.872726,210.303940 182.496582,210.326340 
	C179.129257,210.348679 177.857941,208.740555 176.961502,205.851105 
	C174.914902,199.254425 170.723969,197.394165 164.344315,200.648300 
	C161.056671,202.325272 159.244843,201.223572 156.983810,199.078079 
	C154.486130,196.708038 154.961792,194.646164 156.480621,192.026428 
	C159.625427,186.602127 157.884247,182.294632 151.689407,180.216095 
	C148.695541,179.211594 146.822617,177.925186 146.811844,174.340073 
	C146.801270,170.827591 148.417679,169.405640 151.515976,168.376373 
	C157.620926,166.348282 159.507019,161.893433 156.400101,156.471802 
	C154.421234,153.018661 155.237320,150.871155 157.796982,148.229904 
	C160.319687,145.626785 162.350174,146.503708 164.861938,147.846603 
	C170.492569,150.856949 174.557739,149.151093 176.760330,143.050385 
	C177.373245,141.352768 178.088654,139.786911 179.275955,138.280609 
	C182.510468,134.177048 180.233612,128.695389 175.074982,128.351639 
	C169.434250,127.975777 163.750824,128.252060 158.086182,128.216476 
	C156.391953,128.205826 155.327454,129.085358 154.439850,130.420593 
	C151.888397,134.258789 148.257538,135.552704 143.706741,135.437332 
	C135.546478,135.230453 127.375526,135.272888 119.212608,135.415421 
	C115.225975,135.485016 111.914230,134.326111 109.705605,131.016388 
	C108.210724,128.776230 106.332047,128.108902 103.802063,128.171432 
	C99.138840,128.286667 94.464325,128.066208 89.807106,128.271423 
	C84.627243,128.499710 83.831558,130.353943 83.821930,138.045822 
	C83.815979,142.791290 86.493690,142.941574 89.983521,142.890030 
	C96.980820,142.786636 103.981987,142.802094 110.979546,142.905106 
	C116.402649,142.984940 118.164734,144.771835 118.273010,150.128540 
	C118.353821,154.126144 118.319801,158.127640 118.258163,162.126190 
	C118.169884,167.853333 116.827553,169.272720 111.183388,169.334183 
	C103.518723,169.417679 95.846588,169.544937 88.189362,169.294922 
	C83.894676,169.154724 83.212357,171.273544 83.320595,174.830856 
	C83.422134,178.168106 83.081673,181.147476 88.050568,180.963928 
	C95.871902,180.674973 103.712875,180.824554 111.543877,180.921814 
	C117.205902,180.992111 119.051758,182.853561 119.178528,188.427475 
	C119.265633,192.258087 119.244301,196.093826 119.163261,199.924988 
	C119.042717,205.624146 117.445183,207.456635 111.776199,207.735291 
	C106.455727,207.996826 101.114899,207.878418 95.783134,207.868744 
	C82.956619,207.845474 70.130165,207.787994 56.904892,207.754272 
M180.933792,188.604614 
	C182.093506,188.593048 183.276062,188.725891 184.409241,188.546616 
	C191.955872,187.352585 197.097763,181.093857 196.817596,173.533325 
	C196.560089,166.584564 191.259277,160.949783 184.349167,160.279358 
	C176.498734,159.517670 170.473083,163.946548 168.736206,171.754959 
	C167.141174,178.925674 171.432144,185.222183 180.933792,188.604614 
M104.183304,87.250046 
	C106.701805,88.849380 108.622696,91.537819 112.191483,91.400185 
	C109.056053,88.247429 105.643433,85.473495 102.066963,82.929955 
	C99.655052,81.214645 99.618179,79.631584 101.722305,77.766998 
	C103.088379,76.556458 104.542702,75.435234 105.824600,74.142250 
	C108.029182,71.918587 111.354073,70.653519 112.537590,66.438492 
	C107.814804,68.192726 105.362465,71.629677 102.398956,74.340530 
	C95.073807,81.041183 95.112587,81.083572 104.183304,87.250046 
M165.297287,83.040337 
	C167.637207,81.306915 167.463531,79.729759 165.245682,77.916168 
	C162.428009,75.612099 159.836304,73.033569 157.055908,70.681274 
	C155.453751,69.325790 154.313278,67.142532 150.646057,66.768074 
	C154.980637,72.278702 160.259491,75.396942 163.831299,80.622864 
	C159.738876,84.088707 155.775116,87.445602 151.811356,90.802490 
	C157.260651,89.890289 160.707596,86.192787 165.297287,83.040337 
M124.501976,92.464897 
	C124.369095,93.244286 123.977020,94.058121 125.599487,95.367493 
	C130.580231,84.759201 135.453629,74.379555 140.327026,63.999905 
	C139.743027,63.707775 139.159012,63.415646 138.574997,63.123516 
	C133.958084,72.692978 129.341171,82.262451 124.501976,92.464897 
M103.817711,191.960663 
	C101.871758,190.197479 99.952820,190.133698 98.221710,192.203659 
	C97.170975,193.460052 96.980614,194.985321 97.882011,196.375809 
	C99.081306,198.225845 101.001381,198.298950 102.767090,197.564224 
	C105.133659,196.579437 105.037155,194.583969 103.817711,191.960663 
M60.600235,152.566055 
	C57.720432,153.436508 56.392864,155.278549 57.737064,158.135269 
	C58.667347,160.112366 60.643738,160.103668 62.464890,159.408417 
	C63.768188,158.910904 64.621620,157.852356 64.572662,156.373169 
	C64.502960,154.267456 63.195770,153.144028 60.600235,152.566055 
M59.954128,197.306458 
	C58.765110,197.435776 57.285198,197.115845 57.076828,199.309967 
	C60.150536,199.619537 63.056747,200.430191 66.053909,198.584412 
	C64.331833,196.693558 62.392181,197.609131 59.954128,197.306458 
M101.045891,153.399643 
	C102.241753,152.974945 103.937820,153.555908 104.960068,151.386673 
	C101.468842,151.357071 98.504265,150.950760 94.458878,151.992249 
	C97.096001,153.294357 98.678886,153.565826 101.045891,153.399643 
M57.571098,189.786591 
	C60.193241,192.114777 62.818829,190.726303 65.443169,190.681793 
	C65.445244,190.273956 65.447311,189.866104 65.449387,189.458267 
	C62.992126,189.458267 60.534870,189.458267 57.571098,189.786591 
M98.324738,160.918365 
	C100.326279,160.918365 102.327827,160.918365 104.329369,160.918365 
	C100.014427,158.920319 99.020485,158.960724 95.572220,160.631668 
	C96.407654,160.736084 97.036316,160.814667 98.324738,160.918365 
z"/>
</svg>