<svg version="1.1" id="Layer_1" xmlns="http://www.w3.org/2000/svg" xmlns:xlink="http://www.w3.org/1999/xlink" x="0px" y="0px"
	 width="24px" viewBox="0 0 225 225" enable-background="new 0 0 225 225" xml:space="preserve">
<path fill="#000000" opacity="1.000000" stroke="none" 
	d="
M143.000000,1.000000 
	C146.692902,1.000000 150.385818,1.000000 154.536285,1.381652 
	C160.931229,7.300822 159.256256,17.761539 151.987442,21.535528 
	C151.987442,26.199722 151.987442,30.767174 151.987442,35.289490 
	C162.335907,36.275459 162.781326,36.762569 164.283630,48.383167 
	C176.220901,50.026066 176.220901,50.026066 178.761124,62.914772 
	C189.794144,63.734673 190.178375,64.085854 191.876831,75.116882 
	C196.438049,75.116882 201.042023,75.116882 204.829407,75.116882 
	C206.901703,72.835518 208.415024,69.619919 210.321487,69.366913 
	C215.630478,68.662354 221.467514,67.204483 226.000000,72.000000 
	C226.000000,75.692909 226.000000,79.385818 225.864868,83.885216 
	C220.283661,91.248779 209.091461,89.792709 205.635818,82.165848 
	C200.984848,82.165848 196.380859,82.165848 191.586090,82.165848 
	C191.586090,91.507713 191.586090,100.593094 191.586090,109.923386 
	C196.411087,109.923386 201.019348,109.923386 205.647888,109.923386 
	C209.210541,101.957916 220.813568,100.839333 226.000000,108.000000 
	C226.000000,111.361290 226.000000,114.722572 225.749496,118.804596 
	C220.604034,126.044983 209.511673,124.651176 205.512848,117.217773 
	C200.811325,117.217773 196.234283,117.217773 191.647491,117.217773 
	C191.647491,126.642097 191.647491,135.722061 191.647491,144.943573 
	C196.561996,144.943573 201.191315,144.943573 205.820618,144.943573 
	C205.563599,144.544510 205.306564,144.145432 205.049545,143.746368 
	C207.353622,142.072601 209.564529,139.166641 211.981354,138.983902 
	C216.877853,138.613647 222.896545,136.399811 226.000000,143.000000 
	C226.000000,146.692902 226.000000,150.385818 225.618332,154.536255 
	C219.671524,160.963867 209.137283,159.264450 205.518448,151.986710 
	C200.853180,151.986710 196.290176,151.986710 191.780518,151.986710 
	C190.529633,162.533707 190.193237,162.840439 178.631577,164.290817 
	C176.897858,176.398621 176.897858,176.398621 164.102844,178.769547 
	C163.296005,189.735306 162.843475,190.229889 151.886520,191.882355 
	C151.886520,196.439545 151.886520,201.039017 151.886520,204.801437 
	C154.183426,206.904449 157.384720,208.425583 157.636841,210.335953 
	C158.336975,215.640823 159.793594,221.473251 155.000000,226.000000 
	C151.307098,226.000000 147.614182,226.000000 143.176910,225.769333 
	C136.352676,222.442322 138.655334,216.754791 138.982468,212.215164 
	C139.165222,209.679428 142.163803,207.346573 143.893524,204.922287 
	C144.210739,205.149673 144.527954,205.377060 144.845169,205.604446 
	C144.845169,201.002380 144.845169,196.400314 144.845169,191.603836 
	C135.507660,191.603836 126.425835,191.603836 117.099304,191.603836 
	C117.099304,196.425095 117.099304,201.031601 117.099304,205.667435 
	C125.052513,209.259262 126.165672,220.824081 119.000000,226.000000 
	C115.638710,226.000000 112.277428,226.000000 108.201225,225.743408 
	C100.936218,220.627655 102.342339,209.449966 109.804405,205.527390 
	C109.804405,200.834885 109.804405,196.257904 109.804405,191.658447 
	C100.378510,191.658447 91.296150,191.658447 82.058945,191.658447 
	C82.058945,196.559494 82.058945,201.187424 82.058945,205.815353 
	C82.445312,205.571426 82.831680,205.327515 83.218040,205.083588 
	C84.902573,207.365143 87.818214,209.546463 88.013847,211.949249 
	C88.413887,216.862457 90.571815,222.872131 84.000000,226.000000 
	C80.307091,226.000000 76.614182,226.000000 72.463745,225.618347 
	C66.060646,219.694366 67.736404,209.213943 74.993546,205.489212 
	C74.993546,200.831055 74.993546,196.275009 74.993546,191.773209 
	C64.575783,190.610565 64.293381,190.299866 62.799690,179.391968 
	C58.818317,178.039246 54.204674,177.762451 51.836021,175.313904 
	C49.329247,172.722565 48.958637,168.064758 47.571423,164.068863 
	C37.372505,163.354187 36.867706,162.889282 35.109467,151.867706 
	C30.545507,151.867706 25.938992,151.867706 22.195337,151.867706 
	C20.075108,154.192032 18.563210,157.387985 16.664459,157.637238 
	C11.358441,158.333847 5.526869,159.793457 1.000000,155.000000 
	C1.000000,151.307098 1.000000,147.614182 1.136206,143.115311 
	C6.681248,135.742661 17.940750,137.205688 21.349119,144.846893 
	C25.992474,144.846893 30.597704,144.846893 35.416790,144.846893 
	C35.416790,135.523560 35.416790,126.443832 35.416790,117.120239 
	C30.593510,117.120239 25.986345,117.120239 21.343918,117.120239 
	C17.701059,125.056221 6.184302,126.158806 1.000000,119.000000 
	C1.000000,115.638710 1.000000,112.277428 1.248544,108.193703 
	C6.414174,100.945969 17.545736,102.363129 21.486448,109.818878 
	C26.183176,109.818878 30.763010,109.818878 35.360222,109.818878 
	C35.360222,100.375420 35.360222,91.283836 35.360222,82.048660 
	C30.450220,82.048660 25.816324,82.048660 21.182430,82.048660 
	C21.435411,82.432205 21.688393,82.815750 21.941374,83.199287 
	C19.647337,84.889290 17.401325,87.907097 15.049235,87.992172 
	C10.189886,88.167938 4.087924,90.687134 1.000000,84.000000 
	C1.000000,80.307091 1.000000,76.614182 1.381656,72.463722 
	C7.326026,66.041763 17.837502,67.740105 21.674511,75.366699 
	C23.915216,75.366699 26.235691,75.366699 28.556166,75.366699 
	C30.800890,75.366699 33.045616,75.366699 35.192703,75.366699 
	C36.422871,64.513702 36.626934,64.328461 48.402359,62.713390 
	C49.941341,50.909492 49.941341,50.909492 62.903244,48.210510 
	C63.683769,37.259853 64.225586,36.672340 75.130905,35.174900 
	C75.130905,30.601099 75.130905,25.991636 75.130905,22.204880 
	C72.817520,20.095348 69.616318,18.581682 69.365562,16.679140 
	C68.665657,11.368886 67.204361,5.532528 72.000000,1.000000 
	C75.692909,1.000000 79.385818,1.000000 83.823425,1.230372 
	C91.284431,6.262043 89.830460,17.859697 82.164719,21.383480 
	C82.164719,26.036856 82.164719,30.639524 82.164719,35.430405 
	C91.516273,35.430405 100.602806,35.430405 109.917206,35.430405 
	C109.917206,30.611784 109.917206,25.996410 109.917206,21.357428 
	C101.944855,17.709877 100.833443,6.176291 108.000000,1.000000 
	C111.361290,1.000000 114.722572,1.000000 118.798996,1.256394 
	C126.054573,6.367494 124.652618,17.499714 117.178955,21.501459 
	C117.178955,26.197821 117.178955,30.785139 117.178955,35.370319 
	C126.593414,35.370319 135.681152,35.370319 144.932159,35.370319 
	C144.932159,30.471327 144.932159,25.838720 144.932159,21.206116 
	C144.569229,21.455814 144.206299,21.705513 143.843369,21.955210 
	C142.138382,19.663340 139.187515,17.473476 138.989777,15.058193 
	C138.587723,10.147820 136.412064,4.126474 143.000000,1.000000 
M146.024353,42.108101 
	C120.798538,42.108101 95.572723,42.108101 70.276009,42.108101 
	C70.276009,44.680908 70.276009,46.567673 70.276009,48.635651 
	C96.077469,48.635651 121.499969,48.635651 147.834167,48.808250 
	C150.775879,48.808250 153.717590,48.808250 156.695831,48.808250 
	C156.695831,46.306370 156.695831,44.414684 156.695831,42.238560 
	C153.197693,42.238560 150.071854,42.238560 146.024353,42.108101 
M146.009216,178.200928 
	C120.773964,178.200928 95.538712,178.200928 69.891502,178.200928 
	C70.002510,180.718750 70.086014,182.612793 70.180740,184.761398 
	C96.105461,184.761398 121.525871,184.761398 147.859116,184.900101 
	C150.791458,184.900101 153.723785,184.900101 156.693268,184.900101 
	C156.693268,182.299271 156.693268,180.412766 156.693268,178.364258 
	C153.184647,178.364258 150.053238,178.364258 146.009216,178.200928 
M51.375893,82.342232 
	C46.131596,79.415413 50.752625,73.858665 47.916565,69.901947 
	C46.231384,69.985535 44.334999,70.079605 42.428490,70.174171 
	C42.428490,99.379440 42.428490,128.040833 42.428490,156.733414 
	C44.709885,156.733414 46.595165,156.733414 48.881721,156.733414 
	C48.881721,154.546646 48.881710,152.745850 48.881721,150.945053 
	C48.881840,133.154770 48.883434,115.364487 48.880394,97.574203 
	C48.879967,95.065422 48.544250,92.383301 52.836491,92.056023 
	C53.600380,94.038475 55.015057,96.016464 55.028667,98.004051 
	C55.184834,120.803421 55.196041,143.604645 55.065506,166.404327 
	C55.041908,170.526245 56.500298,172.061447 60.613544,171.932373 
	C67.596581,171.713272 74.591522,171.886993 81.581390,171.870132 
	C108.370819,171.805557 135.160233,171.730820 162.817032,171.851227 
	C171.892792,171.969742 171.893051,171.969742 171.893082,162.971497 
	C171.893204,129.684738 171.893600,96.397995 171.892807,63.111240 
	C171.892609,54.974880 171.859756,54.939503 163.924667,55.120560 
	C163.264709,55.135620 162.607361,55.264240 161.030502,55.183460 
	C127.553032,55.171089 94.075394,55.207352 60.598328,55.084011 
	C56.473038,55.068810 54.900845,56.501682 55.070087,60.625053 
	C55.302132,66.278450 55.357128,71.963104 54.994480,77.602631 
	C54.882202,79.348701 53.162781,80.991425 51.375893,82.342232 
M184.958740,77.586472 
	C184.958740,75.161705 184.958740,72.736938 184.958740,70.323433 
	C182.282547,70.323433 180.396301,70.323433 178.478210,70.323433 
	C178.478210,99.394699 178.478210,128.066467 178.478210,157.128647 
	C180.756897,157.013031 182.647110,156.917130 184.958679,156.799850 
	C184.958679,130.372681 184.958679,104.467644 184.958740,77.586472 
M7.329763,79.429871 
	C8.209983,84.710075 11.757308,80.914795 13.844865,81.796387 
	C13.844865,79.368073 13.844865,77.340485 13.844865,74.935760 
	C11.095846,75.821915 6.990492,73.009361 7.329763,79.429871 
M151.880615,215.429581 
	C151.152039,210.031097 147.519135,213.868423 145.348389,212.882599 
	C145.348389,215.376724 145.348389,217.398468 145.348389,220.415771 
	C147.830490,218.511932 152.202209,222.092529 151.880615,215.429581 
M112.578163,212.746567 
	C107.412209,213.758377 111.008255,217.077301 110.335594,219.405609 
	C112.722862,219.405609 114.616684,219.405609 117.573029,219.405609 
	C115.747047,216.883698 119.623596,212.458374 112.578163,212.746567 
M75.992126,219.448792 
	C77.892517,219.448792 79.792908,219.448792 81.702744,219.448792 
	C81.702744,217.016724 81.702744,214.979324 81.702744,213.147873 
	C79.358002,213.147873 77.325691,213.147873 75.075050,213.147873 
	C75.173637,215.329544 75.254089,217.109848 75.992126,219.448792 
M75.117859,10.687354 
	C75.024437,17.036745 79.264778,13.342590 81.611786,14.011041 
	C81.611786,11.530886 81.611786,9.516653 81.611786,5.818846 
	C78.779800,7.560948 76.949615,8.686795 75.117859,10.687354 
M116.234032,14.050737 
	C116.518417,11.949402 116.802803,9.848067 117.090462,7.722542 
	C114.257927,7.722542 112.251343,7.722542 110.301765,7.722542 
	C110.301765,10.033665 110.301765,11.932730 110.301765,14.231545 
	C112.143890,14.231545 113.739761,14.231545 116.234032,14.050737 
M145.862350,7.454739 
	C145.498291,9.567226 145.134232,11.679714 144.745209,13.937014 
	C147.478989,13.937014 149.506531,13.937014 151.489883,13.937014 
	C151.489883,11.618690 151.489883,9.618574 151.489883,7.347432 
	C149.639908,7.347432 148.181076,7.347432 145.862350,7.454739 
M8.083159,110.275146 
	C7.796602,112.391068 7.510045,114.506989 7.208835,116.731094 
	C9.946575,116.731094 11.852087,116.731094 13.984713,116.731094 
	C13.984713,114.490181 13.984713,112.467567 13.984713,110.077164 
	C12.133373,110.077164 10.532363,110.077164 8.083159,110.275146 
M214.495346,82.000061 
	C216.079254,82.000061 217.663147,82.000061 219.326416,82.000061 
	C219.326416,79.484627 219.326416,77.464035 219.326416,75.340149 
	C217.084686,75.340149 215.190063,75.340149 212.536331,75.340149 
	C212.915573,77.740067 213.247726,79.842026 214.495346,82.000061 
M219.449677,150.998734 
	C219.449677,149.097046 219.449677,147.195343 219.449677,145.291321 
	C217.033905,145.291321 214.994186,145.291321 213.149689,145.291321 
	C213.149689,147.627304 213.149689,149.656494 213.149689,151.923569 
	C215.331589,151.819855 217.109131,151.735352 219.449677,150.998734 
M13.423125,145.056244 
	C11.519640,145.056244 9.616154,145.056244 7.691148,145.056244 
	C7.691148,147.560272 7.691148,149.580292 7.691148,151.641785 
	C9.952957,151.641785 11.849249,151.641785 14.120061,151.641785 
	C14.120061,149.494446 14.120061,147.580734 13.423125,145.056244 
M219.657089,115.225128 
	C219.657089,113.640541 219.657089,112.055946 219.657089,110.362686 
	C217.076584,110.362686 215.058121,110.362686 213.117950,110.362686 
	C213.117950,112.703690 213.117950,114.726967 213.117950,117.335464 
	C215.539139,116.854240 217.515335,116.461472 219.657089,115.225128 
z"/>
<path fill="#5F9EF3" opacity="1.000000" stroke="none" 
	d="
M161.949646,171.659882 
	C135.160233,171.730820 108.370819,171.805557 81.581390,171.870132 
	C74.591522,171.886993 67.596581,171.713272 60.613544,171.932373 
	C56.500298,172.061447 55.041908,170.526245 55.065506,166.404327 
	C55.196041,143.604645 55.184834,120.803421 55.028667,98.004051 
	C55.015057,96.016464 53.600380,94.038475 52.427284,91.517441 
	C52.071774,88.213058 52.125473,85.447258 52.179173,82.681465 
	C53.162781,80.991425 54.882202,79.348701 54.994480,77.602631 
	C55.357128,71.963104 55.302132,66.278450 55.070087,60.625053 
	C54.900845,56.501682 56.473038,55.068810 60.598328,55.084011 
	C94.075394,55.207352 127.553032,55.171089 161.504852,55.697327 
	C161.628159,59.820621 161.277100,63.430042 160.617737,66.888275 
	C156.582153,65.136940 152.878174,62.217678 149.123795,62.151363 
	C125.310585,61.730740 101.485489,61.833755 77.665955,61.999592 
	C69.056801,62.059528 62.060581,69.050240 62.000229,77.657639 
	C61.833202,101.477165 61.843769,125.299164 61.985874,149.118988 
	C62.038761,157.983261 69.060730,164.933136 77.943039,165.018417 
	C94.432785,165.176743 110.926315,165.152649 127.414543,164.929398 
	C129.057861,164.907135 130.675507,162.987869 132.735809,161.939392 
	C136.062408,161.931152 138.958252,161.932556 141.998077,162.303391 
	C143.616638,163.470337 145.028290,164.786209 146.576859,164.974197 
	C152.749115,165.723465 157.760086,163.201843 161.934692,159.216492 
	C161.961426,163.681122 161.955536,167.670517 161.949646,171.659882 
z"/>
<path fill="#5088E7" opacity="1.000000" stroke="none" 
	d="
M162.383331,171.755554 
	C161.955536,167.670517 161.961426,163.681122 162.021347,158.865067 
	C163.063995,154.430466 164.863571,150.832565 164.908234,147.212982 
	C165.176346,125.480545 164.931000,103.742188 165.117905,82.008041 
	C165.165405,76.483749 164.143616,71.521286 160.926041,67.039467 
	C161.277100,63.430042 161.628159,59.820621 161.964005,55.775650 
	C162.607361,55.264240 163.264709,55.135620 163.924667,55.120560 
	C171.859756,54.939503 171.892609,54.974880 171.892807,63.111240 
	C171.893600,96.397995 171.893204,129.684738 171.893082,162.971497 
	C171.893051,171.969742 171.892792,171.969742 162.383331,171.755554 
z"/>
<path fill="#706973" opacity="1.000000" stroke="none" 
	d="
M51.777534,82.511848 
	C52.125473,85.447258 52.071774,88.213058 52.041431,91.406036 
	C48.544250,92.383301 48.879967,95.065422 48.880394,97.574203 
	C48.883434,115.364487 48.881840,133.154770 48.881721,150.945053 
	C48.881710,152.745850 48.881721,154.546646 48.881721,156.733414 
	C46.595165,156.733414 44.709885,156.733414 42.428490,156.733414 
	C42.428490,128.040833 42.428490,99.379440 42.428490,70.174171 
	C44.334999,70.079605 46.231384,69.985535 47.916565,69.901947 
	C50.752625,73.858665 46.131596,79.415413 51.777534,82.511848 
z"/>
<path fill="#615961" opacity="1.000000" stroke="none" 
	d="
M184.958710,78.074539 
	C184.958679,104.467644 184.958679,130.372681 184.958679,156.799850 
	C182.647110,156.917130 180.756897,157.013031 178.478210,157.128647 
	C178.478210,128.066467 178.478210,99.394699 178.478210,70.323433 
	C180.396301,70.323433 182.282547,70.323433 184.958740,70.323433 
	C184.958740,72.736938 184.958740,75.161705 184.958710,78.074539 
z"/>
<path fill="#756E78" opacity="1.000000" stroke="none" 
	d="
M146.946289,184.761398 
	C121.525871,184.761398 96.105461,184.761398 70.180740,184.761398 
	C70.086014,182.612793 70.002510,180.718750 69.891502,178.200928 
	C95.538712,178.200928 120.773964,178.200928 146.486938,178.678833 
	C146.958527,181.024948 146.952408,182.893173 146.946289,184.761398 
z"/>
<path fill="#756E78" opacity="1.000000" stroke="none" 
	d="
M146.922470,48.635651 
	C121.499969,48.635651 96.077469,48.635651 70.276009,48.635651 
	C70.276009,46.567673 70.276009,44.680908 70.276009,42.108101 
	C95.572723,42.108101 120.798538,42.108101 146.501740,42.574280 
	C146.960251,44.905521 146.941360,46.770584 146.922470,48.635651 
z"/>
<path fill="#625B63" opacity="1.000000" stroke="none" 
	d="
M147.402695,184.830750 
	C146.952408,182.893173 146.958527,181.024948 146.943237,178.760498 
	C150.053238,178.364258 153.184647,178.364258 156.693268,178.364258 
	C156.693268,180.412766 156.693268,182.299271 156.693268,184.900101 
	C153.723785,184.900101 150.791458,184.900101 147.402695,184.830750 
z"/>
<path fill="#625B63" opacity="1.000000" stroke="none" 
	d="
M147.378326,48.721951 
	C146.941360,46.770584 146.960251,44.905521 146.962585,42.639507 
	C150.071854,42.238560 153.197693,42.238560 156.695831,42.238560 
	C156.695831,44.414684 156.695831,46.306370 156.695831,48.808250 
	C153.717590,48.808250 150.775879,48.808250 147.378326,48.721951 
z"/>
<path fill="#E8CD73" opacity="1.000000" stroke="none" 
	d="
M7.328734,78.999435 
	C6.990492,73.009361 11.095846,75.821915 13.844865,74.935760 
	C13.844865,77.340485 13.844865,79.368073 13.844865,81.796387 
	C11.757308,80.914795 8.209983,84.710075 7.328734,78.999435 
z"/>
<path fill="#E8CD73" opacity="1.000000" stroke="none" 
	d="
M151.881363,215.871765 
	C152.202209,222.092529 147.830490,218.511932 145.348389,220.415771 
	C145.348389,217.398468 145.348389,215.376724 145.348389,212.882599 
	C147.519135,213.868423 151.152039,210.031097 151.881363,215.871765 
z"/>
<path fill="#E4CA71" opacity="1.000000" stroke="none" 
	d="
M113.039124,212.745239 
	C119.623596,212.458374 115.747047,216.883698 117.573029,219.405609 
	C114.616684,219.405609 112.722862,219.405609 110.335594,219.405609 
	C111.008255,217.077301 107.412209,213.758377 113.039124,212.745239 
z"/>
<path fill="#E8CD73" opacity="1.000000" stroke="none" 
	d="
M75.663330,219.169479 
	C75.254089,217.109848 75.173637,215.329544 75.075050,213.147873 
	C77.325691,213.147873 79.358002,213.147873 81.702744,213.147873 
	C81.702744,214.979324 81.702744,217.016724 81.702744,219.448792 
	C79.792908,219.448792 77.892517,219.448792 75.663330,219.169479 
z"/>
<path fill="#E8CD73" opacity="1.000000" stroke="none" 
	d="
M75.118637,10.249998 
	C76.949615,8.686795 78.779800,7.560948 81.611786,5.818846 
	C81.611786,9.516653 81.611786,11.530886 81.611786,14.011041 
	C79.264778,13.342590 75.024437,17.036745 75.118637,10.249998 
z"/>
<path fill="#E4CA71" opacity="1.000000" stroke="none" 
	d="
M115.784836,14.141142 
	C113.739761,14.231545 112.143890,14.231545 110.301765,14.231545 
	C110.301765,11.932730 110.301765,10.033665 110.301765,7.722542 
	C112.251343,7.722542 114.257927,7.722542 117.090462,7.722542 
	C116.802803,9.848067 116.518417,11.949402 115.784836,14.141142 
z"/>
<path fill="#E8CD73" opacity="1.000000" stroke="none" 
	d="
M146.292297,7.401085 
	C148.181076,7.347432 149.639908,7.347432 151.489883,7.347432 
	C151.489883,9.618574 151.489883,11.618690 151.489883,13.937014 
	C149.506531,13.937014 147.478989,13.937014 144.745209,13.937014 
	C145.134232,11.679714 145.498291,9.567226 146.292297,7.401085 
z"/>
<path fill="#E4CA70" opacity="1.000000" stroke="none" 
	d="
M8.507257,110.176155 
	C10.532363,110.077164 12.133373,110.077164 13.984713,110.077164 
	C13.984713,112.467567 13.984713,114.490181 13.984713,116.731094 
	C11.852087,116.731094 9.946575,116.731094 7.208835,116.731094 
	C7.510045,114.506989 7.796602,112.391068 8.507257,110.176155 
z"/>
<path fill="#E8CD73" opacity="1.000000" stroke="none" 
	d="
M214.037613,81.972031 
	C213.247726,79.842026 212.915573,77.740067 212.536331,75.340149 
	C215.190063,75.340149 217.084686,75.340149 219.326416,75.340149 
	C219.326416,77.464035 219.326416,79.484627 219.326416,82.000061 
	C217.663147,82.000061 216.079254,82.000061 214.037613,81.972031 
z"/>
<path fill="#E8CD73" opacity="1.000000" stroke="none" 
	d="
M219.168182,151.324799 
	C217.109131,151.735352 215.331589,151.819855 213.149689,151.923569 
	C213.149689,149.656494 213.149689,147.627304 213.149689,145.291321 
	C214.994186,145.291321 217.033905,145.291321 219.449677,145.291321 
	C219.449677,147.195343 219.449677,149.097046 219.168182,151.324799 
z"/>
<path fill="#E8CD73" opacity="1.000000" stroke="none" 
	d="
M13.771593,145.361633 
	C14.120061,147.580734 14.120061,149.494446 14.120061,151.641785 
	C11.849249,151.641785 9.952957,151.641785 7.691148,151.641785 
	C7.691148,149.580292 7.691148,147.560272 7.691148,145.056244 
	C9.616154,145.056244 11.519640,145.056244 13.771593,145.361633 
z"/>
<path fill="#E4CA70" opacity="1.000000" stroke="none" 
	d="
M219.574310,115.646912 
	C217.515335,116.461472 215.539139,116.854240 213.117950,117.335464 
	C213.117950,114.726967 213.117950,112.703690 213.117950,110.362686 
	C215.058121,110.362686 217.076584,110.362686 219.657089,110.362686 
	C219.657089,112.055946 219.657089,113.640541 219.574310,115.646912 
z"/>
<path fill="#EAF2FC" opacity="1.000000" stroke="none" 
	d="
M141.854095,161.933960 
	C138.958252,161.932556 136.062408,161.931152 132.625595,161.532608 
	C130.147324,160.329407 128.218399,158.848221 126.271416,158.824097 
	C110.781097,158.632172 95.287102,158.767517 79.794754,158.693512 
	C72.883308,158.660507 68.446472,155.081680 68.395653,148.798035 
	C68.205727,125.310715 68.228859,101.820366 68.381210,78.332512 
	C68.418930,72.518440 72.402145,68.417519 78.164352,68.395752 
	C101.141869,68.308929 124.120453,68.506752 147.081818,69.026657 
	C147.716492,72.339897 149.013596,75.247002 148.919067,78.108147 
	C148.035065,104.866959 151.301895,131.723114 146.764679,158.516083 
	C144.907715,159.732269 143.380905,160.833115 141.854095,161.933960 
M100.769966,125.690758 
	C101.089600,118.135948 101.514694,110.582031 101.578987,103.025047 
	C101.586052,102.194908 99.290329,100.486511 98.473961,100.707161 
	C97.216370,101.047089 95.678268,102.565063 95.401596,103.832626 
	C94.906456,106.101151 95.262093,108.555367 95.262093,110.931961 
	C92.366402,108.249771 90.598701,105.288620 88.411247,102.679382 
	C87.528099,101.625961 85.501724,100.591621 84.407310,100.920128 
	C83.323082,101.245583 82.127243,103.272125 82.072357,104.597763 
	C81.824722,110.579086 81.752167,116.589729 82.124916,122.558052 
	C82.210434,123.927292 84.307922,125.170883 85.479469,126.472298 
	C86.507774,125.184608 88.074432,124.030540 88.435158,122.577164 
	C88.945175,120.522339 88.564400,118.246422 88.564400,116.065018 
	C91.456505,118.674263 93.062256,121.587616 95.240265,123.979996 
	C96.320847,125.166946 98.453178,125.396400 100.769966,125.690758 
M144.573029,107.272118 
	C141.762009,101.187973 138.993317,99.948479 130.257584,100.388252 
	C127.152100,100.544579 125.709320,101.702751 125.798103,104.917961 
	C125.926643,109.572998 125.675018,114.241379 125.888489,118.890160 
	C126.013329,121.608681 124.288460,125.849663 128.585098,126.322266 
	C133.630402,126.877213 131.466110,121.889938 132.456680,119.412521 
	C142.305893,118.224693 144.866394,115.842964 144.573029,107.272118 
M115.325417,119.993134 
	C114.817719,118.994385 113.922073,118.014595 113.872139,116.993469 
	C113.693565,113.341576 113.796494,109.675652 113.803276,106.015053 
	C113.808052,103.437950 113.748840,100.291710 110.372299,100.770256 
	C109.037384,100.959450 107.462715,104.223335 107.206223,106.240936 
	C106.706604,110.170815 107.059418,114.209099 107.059784,118.202492 
	C107.060555,126.529488 107.657021,127.227783 115.744606,126.481697 
	C117.325043,126.335899 119.696037,124.975105 120.081398,123.689003 
	C120.892624,120.981674 118.771652,119.959053 115.325417,119.993134 
z"/>
<path fill="#010102" opacity="1.000000" stroke="none" 
	d="
M147.098648,68.599197 
	C124.120453,68.506752 101.141869,68.308929 78.164352,68.395752 
	C72.402145,68.417519 68.418930,72.518440 68.381210,78.332512 
	C68.228859,101.820366 68.205727,125.310715 68.395653,148.798035 
	C68.446472,155.081680 72.883308,158.660507 79.794754,158.693512 
	C95.287102,158.767517 110.781097,158.632172 126.271416,158.824097 
	C128.218399,158.848221 130.147324,160.329407 132.194855,161.542267 
	C130.675507,162.987869 129.057861,164.907135 127.414543,164.929398 
	C110.926315,165.152649 94.432785,165.176743 77.943039,165.018417 
	C69.060730,164.933136 62.038761,157.983261 61.985874,149.118988 
	C61.843769,125.299164 61.833202,101.477165 62.000229,77.657639 
	C62.060581,69.050240 69.056801,62.059528 77.665955,61.999592 
	C101.485489,61.833755 125.310585,61.730740 149.123795,62.151363 
	C152.878174,62.217678 156.582153,65.136940 160.617737,66.888275 
	C164.143616,71.521286 165.165405,76.483749 165.117905,82.008041 
	C164.931000,103.742188 165.176346,125.480545 164.908234,147.212982 
	C164.863571,150.832565 163.063995,154.430466 161.988724,158.389832 
	C157.760086,163.201843 152.749115,165.723465 146.576859,164.974197 
	C145.028290,164.786209 143.616638,163.470337 141.998077,162.303391 
	C143.380905,160.833115 144.907715,159.732269 147.165192,158.659393 
	C154.717865,157.967728 158.626328,154.705170 158.667160,148.697830 
	C158.826340,125.283218 158.831329,101.866211 158.669617,78.451630 
	C158.624207,71.876114 153.978928,68.242577 147.098648,68.599197 
z"/>
<path fill="#D0DCEB" opacity="1.000000" stroke="none" 
	d="
M147.081818,69.026657 
	C153.978928,68.242577 158.624207,71.876114 158.669617,78.451630 
	C158.831329,101.866211 158.826340,125.283218 158.667160,148.697830 
	C158.626328,154.705170 154.717865,157.967728 147.495361,158.544037 
	C151.301895,131.723114 148.035065,104.866959 148.919067,78.108147 
	C149.013596,75.247002 147.716492,72.339897 147.081818,69.026657 
z"/>
<path fill="#0B0B0B" opacity="1.000000" stroke="none" 
	d="
M100.439827,125.874893 
	C98.453178,125.396400 96.320847,125.166946 95.240265,123.979996 
	C93.062256,121.587616 91.456505,118.674263 88.564400,116.065018 
	C88.564400,118.246422 88.945175,120.522339 88.435158,122.577164 
	C88.074432,124.030540 86.507774,125.184608 85.479469,126.472298 
	C84.307922,125.170883 82.210434,123.927292 82.124916,122.558052 
	C81.752167,116.589729 81.824722,110.579086 82.072357,104.597763 
	C82.127243,103.272125 83.323082,101.245583 84.407310,100.920128 
	C85.501724,100.591621 87.528099,101.625961 88.411247,102.679382 
	C90.598701,105.288620 92.366402,108.249771 95.262093,110.931961 
	C95.262093,108.555367 94.906456,106.101151 95.401596,103.832626 
	C95.678268,102.565063 97.216370,101.047089 98.473961,100.707161 
	C99.290329,100.486511 101.586052,102.194908 101.578987,103.025047 
	C101.514694,110.582031 101.089600,118.135948 100.439827,125.874893 
z"/>
<path fill="#0A0A0A" opacity="1.000000" stroke="none" 
	d="
M144.696365,107.645645 
	C144.866394,115.842964 142.305893,118.224693 132.456680,119.412521 
	C131.466110,121.889938 133.630402,126.877213 128.585098,126.322266 
	C124.288460,125.849663 126.013329,121.608681 125.888489,118.890160 
	C125.675018,114.241379 125.926643,109.572998 125.798103,104.917961 
	C125.709320,101.702751 127.152100,100.544579 130.257584,100.388252 
	C138.993317,99.948479 141.762009,101.187973 144.696365,107.645645 
M137.759872,107.978928 
	C136.012604,107.582108 134.265320,107.185280 132.355377,106.751511 
	C132.355377,109.069336 132.355377,110.492706 132.355377,112.533363 
	C135.042999,111.971916 138.523972,113.813667 137.759872,107.978928 
z"/>
<path fill="#121213" opacity="1.000000" stroke="none" 
	d="
M115.776794,119.997215 
	C118.771652,119.959053 120.892624,120.981674 120.081398,123.689003 
	C119.696037,124.975105 117.325043,126.335899 115.744606,126.481697 
	C107.657021,127.227783 107.060555,126.529488 107.059784,118.202492 
	C107.059418,114.209099 106.706604,110.170815 107.206223,106.240936 
	C107.462715,104.223335 109.037384,100.959450 110.372299,100.770256 
	C113.748840,100.291710 113.808052,103.437950 113.803276,106.015053 
	C113.796494,109.675652 113.693565,113.341576 113.872139,116.993469 
	C113.922073,118.014595 114.817719,118.994385 115.776794,119.997215 
z"/>
<path fill="#E3EAF2" opacity="1.000000" stroke="none" 
	d="
M137.954514,108.379929 
	C138.523972,113.813667 135.042999,111.971916 132.355377,112.533363 
	C132.355377,110.492706 132.355377,109.069336 132.355377,106.751511 
	C134.265320,107.185280 136.012604,107.582108 137.954514,108.379929 
z"/>
</svg>